<mxfile host="app.diagrams.net" modified="2020-12-04T20:52:37.310Z" agent="5.0 (Windows NT 10.0; Win64; x64) AppleWebKit/537.36 (KHTML, like Gecko) Chrome/87.0.4280.88 Safari/537.36" etag="iILuuEt0NikxSm4E3Kf5" version="13.10.9" type="github" pages="2">
  <diagram id="C5RBs43oDa-KdzZeNtuy" name="Page-1">
    <mxGraphModel dx="1320" dy="784" grid="1" gridSize="10" guides="1" tooltips="1" connect="1" arrows="1" fold="1" page="0" pageScale="1" pageWidth="827" pageHeight="1169" math="0" shadow="0">
      <root>
        <mxCell id="WIyWlLk6GJQsqaUBKTNV-0" />
        <mxCell id="WIyWlLk6GJQsqaUBKTNV-1" parent="WIyWlLk6GJQsqaUBKTNV-0" />
        <mxCell id="xSu46usnXrY1J6GmOUCb-12" value="Assembler" style="html=1;" parent="WIyWlLk6GJQsqaUBKTNV-1" vertex="1">
          <mxGeometry x="370" y="350" width="110" height="40" as="geometry" />
        </mxCell>
        <mxCell id="xSu46usnXrY1J6GmOUCb-17" value="Error" style="html=1;" parent="WIyWlLk6GJQsqaUBKTNV-1" vertex="1">
          <mxGeometry x="200" y="190" width="110" height="40" as="geometry" />
        </mxCell>
        <mxCell id="xSu46usnXrY1J6GmOUCb-23" value="SourceFile" style="html=1;" parent="WIyWlLk6GJQsqaUBKTNV-1" vertex="1">
          <mxGeometry x="580.63" y="430" width="110" height="40" as="geometry" />
        </mxCell>
        <mxCell id="xSu46usnXrY1J6GmOUCb-26" value="&lt;p style=&quot;margin: 0px ; margin-top: 4px ; text-align: center&quot;&gt;&lt;i&gt;&amp;lt;&amp;lt;Interface&amp;gt;&amp;gt;&lt;/i&gt;&lt;br&gt;&lt;/p&gt;&lt;div style=&quot;text-align: center&quot;&gt;&lt;b&gt;IReportable&lt;/b&gt;&lt;/div&gt;&lt;hr size=&quot;1&quot;&gt;&lt;p style=&quot;margin: 0px ; margin-left: 4px&quot;&gt;~ record(error : Error) : void&lt;br&gt;&lt;/p&gt;&lt;p style=&quot;margin: 0px ; margin-left: 4px&quot;&gt;+ getErrorLst : List&lt;/p&gt;" style="verticalAlign=top;align=left;overflow=fill;fontSize=12;fontFamily=Helvetica;html=1;" parent="WIyWlLk6GJQsqaUBKTNV-1" vertex="1">
          <mxGeometry x="60" y="330" width="160" height="80" as="geometry" />
        </mxCell>
        <mxCell id="xSu46usnXrY1J6GmOUCb-27" value="&lt;p style=&quot;margin: 0px ; margin-top: 4px ; text-align: center&quot;&gt;&lt;i&gt;&amp;lt;&amp;lt;Interface&amp;gt;&amp;gt;&lt;/i&gt;&lt;br&gt;&lt;/p&gt;&lt;div style=&quot;text-align: center&quot;&gt;&lt;b&gt;IParser&lt;/b&gt;&lt;/div&gt;&lt;hr size=&quot;1&quot;&gt;&lt;p style=&quot;margin: 0px ; margin-left: 4px&quot;&gt;~ parse() : AssemblyUnit&lt;br&gt;&lt;/p&gt;" style="verticalAlign=top;align=left;overflow=fill;fontSize=12;fontFamily=Helvetica;html=1;" parent="WIyWlLk6GJQsqaUBKTNV-1" vertex="1">
          <mxGeometry x="640" y="20" width="140" height="80" as="geometry" />
        </mxCell>
        <mxCell id="xSu46usnXrY1J6GmOUCb-28" value="Use" style="endArrow=open;endSize=12;dashed=1;html=1;exitX=0.5;exitY=0;exitDx=0;exitDy=0;entryX=0.5;entryY=1;entryDx=0;entryDy=0;" parent="WIyWlLk6GJQsqaUBKTNV-1" source="xSu46usnXrY1J6GmOUCb-26" target="xSu46usnXrY1J6GmOUCb-17" edge="1">
          <mxGeometry width="160" relative="1" as="geometry">
            <mxPoint x="320" y="330" as="sourcePoint" />
            <mxPoint x="390" y="140" as="targetPoint" />
          </mxGeometry>
        </mxCell>
        <mxCell id="xSu46usnXrY1J6GmOUCb-31" value="ErrorReporter" style="html=1;" parent="WIyWlLk6GJQsqaUBKTNV-1" vertex="1">
          <mxGeometry x="380" y="190" width="110" height="40" as="geometry" />
        </mxCell>
        <mxCell id="xSu46usnXrY1J6GmOUCb-32" value="Use" style="endArrow=open;endSize=12;dashed=1;html=1;exitX=0;exitY=0.25;exitDx=0;exitDy=0;entryX=1;entryY=0.25;entryDx=0;entryDy=0;" parent="WIyWlLk6GJQsqaUBKTNV-1" source="xSu46usnXrY1J6GmOUCb-31" target="xSu46usnXrY1J6GmOUCb-17" edge="1">
          <mxGeometry width="160" relative="1" as="geometry">
            <mxPoint x="320" y="330" as="sourcePoint" />
            <mxPoint x="480" y="330" as="targetPoint" />
          </mxGeometry>
        </mxCell>
        <mxCell id="xSu46usnXrY1J6GmOUCb-36" value="" style="endArrow=diamondThin;endFill=0;endSize=24;html=1;entryX=0;entryY=0.75;entryDx=0;entryDy=0;exitX=1;exitY=0.75;exitDx=0;exitDy=0;startArrow=open;startFill=0;" parent="WIyWlLk6GJQsqaUBKTNV-1" source="xSu46usnXrY1J6GmOUCb-17" target="xSu46usnXrY1J6GmOUCb-31" edge="1">
          <mxGeometry width="160" relative="1" as="geometry">
            <mxPoint x="292.5" y="90" as="sourcePoint" />
            <mxPoint x="292.5" y="170" as="targetPoint" />
          </mxGeometry>
        </mxCell>
        <mxCell id="xSu46usnXrY1J6GmOUCb-37" value="implements" style="endArrow=block;dashed=1;endFill=0;endSize=12;html=1;entryX=1;entryY=0.5;entryDx=0;entryDy=0;exitX=0.5;exitY=1;exitDx=0;exitDy=0;" parent="WIyWlLk6GJQsqaUBKTNV-1" source="xSu46usnXrY1J6GmOUCb-31" target="xSu46usnXrY1J6GmOUCb-26" edge="1">
          <mxGeometry width="160" relative="1" as="geometry">
            <mxPoint x="475" y="230" as="sourcePoint" />
            <mxPoint x="480" y="330" as="targetPoint" />
          </mxGeometry>
        </mxCell>
        <mxCell id="xSu46usnXrY1J6GmOUCb-38" value="Parser" style="html=1;" parent="WIyWlLk6GJQsqaUBKTNV-1" vertex="1">
          <mxGeometry x="650.63" y="250" width="118.75" height="40" as="geometry" />
        </mxCell>
        <mxCell id="xSu46usnXrY1J6GmOUCb-39" value="AssemblyUnit" style="html=1;" parent="WIyWlLk6GJQsqaUBKTNV-1" vertex="1">
          <mxGeometry x="890" y="20" width="110" height="40" as="geometry" />
        </mxCell>
        <mxCell id="xSu46usnXrY1J6GmOUCb-40" value="implements" style="endArrow=block;dashed=1;endFill=0;endSize=12;html=1;exitX=0.5;exitY=0;exitDx=0;exitDy=0;entryX=0.5;entryY=1;entryDx=0;entryDy=0;" parent="WIyWlLk6GJQsqaUBKTNV-1" source="xSu46usnXrY1J6GmOUCb-38" target="xSu46usnXrY1J6GmOUCb-27" edge="1">
          <mxGeometry width="160" relative="1" as="geometry">
            <mxPoint x="410" y="310" as="sourcePoint" />
            <mxPoint x="570" y="310" as="targetPoint" />
          </mxGeometry>
        </mxCell>
        <mxCell id="xSu46usnXrY1J6GmOUCb-41" value="Use" style="endArrow=open;endSize=12;dashed=1;html=1;exitX=1;exitY=0.25;exitDx=0;exitDy=0;entryX=0;entryY=0.5;entryDx=0;entryDy=0;" parent="WIyWlLk6GJQsqaUBKTNV-1" source="xSu46usnXrY1J6GmOUCb-27" target="xSu46usnXrY1J6GmOUCb-39" edge="1">
          <mxGeometry width="160" relative="1" as="geometry">
            <mxPoint x="410" y="310" as="sourcePoint" />
            <mxPoint x="570" y="310" as="targetPoint" />
          </mxGeometry>
        </mxCell>
        <mxCell id="xSu46usnXrY1J6GmOUCb-45" value="LineStatement" style="html=1;" parent="WIyWlLk6GJQsqaUBKTNV-1" vertex="1">
          <mxGeometry x="890" y="250" width="110" height="40" as="geometry" />
        </mxCell>
        <mxCell id="xSu46usnXrY1J6GmOUCb-47" value="" style="endArrow=diamondThin;endFill=0;endSize=24;html=1;entryX=0.75;entryY=1;entryDx=0;entryDy=0;exitX=0.75;exitY=0;exitDx=0;exitDy=0;startArrow=open;startFill=0;" parent="WIyWlLk6GJQsqaUBKTNV-1" source="xSu46usnXrY1J6GmOUCb-45" target="xSu46usnXrY1J6GmOUCb-39" edge="1">
          <mxGeometry width="160" relative="1" as="geometry">
            <mxPoint x="382.5" y="70" as="sourcePoint" />
            <mxPoint x="382.5" y="150" as="targetPoint" />
          </mxGeometry>
        </mxCell>
        <mxCell id="xSu46usnXrY1J6GmOUCb-48" value="" style="endArrow=diamondThin;endFill=0;endSize=24;html=1;entryX=1;entryY=0.25;entryDx=0;entryDy=0;exitX=0;exitY=0.25;exitDx=0;exitDy=0;startArrow=open;startFill=0;" parent="WIyWlLk6GJQsqaUBKTNV-1" source="xSu46usnXrY1J6GmOUCb-45" target="xSu46usnXrY1J6GmOUCb-38" edge="1">
          <mxGeometry width="160" relative="1" as="geometry">
            <mxPoint x="392.5" y="80" as="sourcePoint" />
            <mxPoint x="392.5" y="160" as="targetPoint" />
          </mxGeometry>
        </mxCell>
        <mxCell id="xSu46usnXrY1J6GmOUCb-49" value="Use" style="endArrow=open;endSize=12;dashed=1;html=1;exitX=1;exitY=0.75;exitDx=0;exitDy=0;entryX=0;entryY=0.75;entryDx=0;entryDy=0;" parent="WIyWlLk6GJQsqaUBKTNV-1" source="xSu46usnXrY1J6GmOUCb-38" target="xSu46usnXrY1J6GmOUCb-45" edge="1">
          <mxGeometry width="160" relative="1" as="geometry">
            <mxPoint x="580" y="300" as="sourcePoint" />
            <mxPoint x="740" y="300" as="targetPoint" />
          </mxGeometry>
        </mxCell>
        <mxCell id="xSu46usnXrY1J6GmOUCb-50" value="Instruction" style="html=1;" parent="WIyWlLk6GJQsqaUBKTNV-1" vertex="1">
          <mxGeometry x="790" y="160" width="110" height="40" as="geometry" />
        </mxCell>
        <mxCell id="xSu46usnXrY1J6GmOUCb-51" value="" style="endArrow=diamondThin;endFill=0;endSize=24;html=1;entryX=0.25;entryY=0;entryDx=0;entryDy=0;exitX=0.5;exitY=1;exitDx=0;exitDy=0;startArrow=open;startFill=0;" parent="WIyWlLk6GJQsqaUBKTNV-1" source="xSu46usnXrY1J6GmOUCb-50" target="xSu46usnXrY1J6GmOUCb-45" edge="1">
          <mxGeometry width="160" relative="1" as="geometry">
            <mxPoint x="880" y="239.9999999999999" as="sourcePoint" />
            <mxPoint x="779.3799999999999" y="239.9999999999999" as="targetPoint" />
          </mxGeometry>
        </mxCell>
        <mxCell id="xSu46usnXrY1J6GmOUCb-52" value="Use" style="endArrow=open;endSize=12;dashed=1;html=1;exitX=0.75;exitY=0;exitDx=0;exitDy=0;entryX=0;entryY=1;entryDx=0;entryDy=0;" parent="WIyWlLk6GJQsqaUBKTNV-1" source="xSu46usnXrY1J6GmOUCb-38" target="xSu46usnXrY1J6GmOUCb-50" edge="1">
          <mxGeometry width="160" relative="1" as="geometry">
            <mxPoint x="580" y="300" as="sourcePoint" />
            <mxPoint x="740" y="300" as="targetPoint" />
          </mxGeometry>
        </mxCell>
        <mxCell id="xSu46usnXrY1J6GmOUCb-53" value="Use" style="endArrow=open;endSize=12;dashed=1;html=1;exitX=0.5;exitY=0;exitDx=0;exitDy=0;entryX=0.75;entryY=1;entryDx=0;entryDy=0;" parent="WIyWlLk6GJQsqaUBKTNV-1" source="xSu46usnXrY1J6GmOUCb-45" target="xSu46usnXrY1J6GmOUCb-50" edge="1">
          <mxGeometry width="160" relative="1" as="geometry">
            <mxPoint x="580" y="300" as="sourcePoint" />
            <mxPoint x="740" y="300" as="targetPoint" />
          </mxGeometry>
        </mxCell>
        <mxCell id="xSu46usnXrY1J6GmOUCb-55" value="CommentToken" style="html=1;" parent="WIyWlLk6GJQsqaUBKTNV-1" vertex="1">
          <mxGeometry x="441.25" y="840" width="119.38" height="40" as="geometry" />
        </mxCell>
        <mxCell id="xSu46usnXrY1J6GmOUCb-56" value="EOLToken" style="html=1;" parent="WIyWlLk6GJQsqaUBKTNV-1" vertex="1">
          <mxGeometry x="150" y="920" width="119.38" height="40" as="geometry" />
        </mxCell>
        <mxCell id="xSu46usnXrY1J6GmOUCb-57" value="NumberToken" style="html=1;" parent="WIyWlLk6GJQsqaUBKTNV-1" vertex="1">
          <mxGeometry x="294.12" y="920" width="119.38" height="40" as="geometry" />
        </mxCell>
        <mxCell id="xSu46usnXrY1J6GmOUCb-58" value="MnemonicToken" style="html=1;" parent="WIyWlLk6GJQsqaUBKTNV-1" vertex="1">
          <mxGeometry x="441.25" y="920" width="119.38" height="40" as="geometry" />
        </mxCell>
        <mxCell id="xSu46usnXrY1J6GmOUCb-59" value="IllegalToken" style="html=1;" parent="WIyWlLk6GJQsqaUBKTNV-1" vertex="1">
          <mxGeometry x="441.25" y="690" width="119.38" height="40" as="geometry" />
        </mxCell>
        <mxCell id="xSu46usnXrY1J6GmOUCb-60" value="LabelToken" style="html=1;" parent="WIyWlLk6GJQsqaUBKTNV-1" vertex="1">
          <mxGeometry x="441.25" y="765" width="119.38" height="40" as="geometry" />
        </mxCell>
        <mxCell id="xSu46usnXrY1J6GmOUCb-61" value="" style="endArrow=block;endFill=0;endSize=12;html=1;exitX=0;exitY=0.5;exitDx=0;exitDy=0;entryX=0.75;entryY=1;entryDx=0;entryDy=0;" parent="WIyWlLk6GJQsqaUBKTNV-1" source="xSu46usnXrY1J6GmOUCb-55" target="xSu46usnXrY1J6GmOUCb-63" edge="1">
          <mxGeometry width="160" relative="1" as="geometry">
            <mxPoint x="600" y="600" as="sourcePoint" />
            <mxPoint x="510" y="710" as="targetPoint" />
          </mxGeometry>
        </mxCell>
        <mxCell id="xSu46usnXrY1J6GmOUCb-63" value="&lt;p style=&quot;margin: 0px ; margin-top: 4px ; text-align: center&quot;&gt;&lt;i&gt;&amp;lt;&amp;lt;Abstract&amp;gt;&amp;gt;&lt;/i&gt;&lt;br&gt;&lt;/p&gt;&lt;div style=&quot;text-align: center&quot;&gt;&lt;b&gt;Token&lt;/b&gt;&lt;/div&gt;&lt;hr size=&quot;1&quot;&gt;&lt;p style=&quot;margin: 0px ; margin-left: 4px&quot;&gt;&lt;span&gt;+ Token(lexeme : String)&lt;/span&gt;&lt;/p&gt;&lt;p style=&quot;margin: 0px ; margin-left: 4px&quot;&gt;&lt;span&gt;+ getValue() : String&lt;/span&gt;&lt;br&gt;&lt;/p&gt;&lt;p style=&quot;margin: 0px ; margin-left: 4px&quot;&gt;&lt;span&gt;+ getType() : TokenType&lt;/span&gt;&lt;/p&gt;" style="verticalAlign=top;align=left;overflow=fill;fontSize=12;fontFamily=Helvetica;html=1;" parent="WIyWlLk6GJQsqaUBKTNV-1" vertex="1">
          <mxGeometry x="169.12" y="550" width="140" height="100" as="geometry" />
        </mxCell>
        <mxCell id="xSu46usnXrY1J6GmOUCb-64" value="" style="endArrow=block;endFill=0;endSize=12;html=1;entryX=1;entryY=0.75;entryDx=0;entryDy=0;exitX=0;exitY=0.5;exitDx=0;exitDy=0;" parent="WIyWlLk6GJQsqaUBKTNV-1" source="xSu46usnXrY1J6GmOUCb-59" target="xSu46usnXrY1J6GmOUCb-63" edge="1">
          <mxGeometry width="160" relative="1" as="geometry">
            <mxPoint x="520" y="590" as="sourcePoint" />
            <mxPoint x="460.6300000000001" y="370" as="targetPoint" />
          </mxGeometry>
        </mxCell>
        <mxCell id="xSu46usnXrY1J6GmOUCb-65" value="" style="endArrow=block;endFill=0;endSize=12;html=1;exitX=0;exitY=0.5;exitDx=0;exitDy=0;entryX=1;entryY=1;entryDx=0;entryDy=0;" parent="WIyWlLk6GJQsqaUBKTNV-1" source="xSu46usnXrY1J6GmOUCb-60" target="xSu46usnXrY1J6GmOUCb-63" edge="1">
          <mxGeometry width="160" relative="1" as="geometry">
            <mxPoint x="370" y="510" as="sourcePoint" />
            <mxPoint x="273" y="650" as="targetPoint" />
          </mxGeometry>
        </mxCell>
        <mxCell id="xSu46usnXrY1J6GmOUCb-66" value="" style="endArrow=block;endFill=0;endSize=12;html=1;exitX=0.5;exitY=0;exitDx=0;exitDy=0;entryX=0.157;entryY=1.007;entryDx=0;entryDy=0;entryPerimeter=0;" parent="WIyWlLk6GJQsqaUBKTNV-1" source="xSu46usnXrY1J6GmOUCb-56" target="xSu46usnXrY1J6GmOUCb-63" edge="1">
          <mxGeometry width="160" relative="1" as="geometry">
            <mxPoint x="380" y="520" as="sourcePoint" />
            <mxPoint x="330" y="600" as="targetPoint" />
          </mxGeometry>
        </mxCell>
        <mxCell id="xSu46usnXrY1J6GmOUCb-67" value="" style="endArrow=block;endFill=0;endSize=12;html=1;exitX=0;exitY=0;exitDx=0;exitDy=0;entryX=0.5;entryY=1;entryDx=0;entryDy=0;" parent="WIyWlLk6GJQsqaUBKTNV-1" source="xSu46usnXrY1J6GmOUCb-58" target="xSu46usnXrY1J6GmOUCb-63" edge="1">
          <mxGeometry width="160" relative="1" as="geometry">
            <mxPoint x="390" y="530" as="sourcePoint" />
            <mxPoint x="222" y="652" as="targetPoint" />
          </mxGeometry>
        </mxCell>
        <mxCell id="xSu46usnXrY1J6GmOUCb-68" value="" style="endArrow=block;endFill=0;endSize=12;html=1;exitX=0.5;exitY=0;exitDx=0;exitDy=0;entryX=0.25;entryY=1;entryDx=0;entryDy=0;" parent="WIyWlLk6GJQsqaUBKTNV-1" source="xSu46usnXrY1J6GmOUCb-57" target="xSu46usnXrY1J6GmOUCb-63" edge="1">
          <mxGeometry width="160" relative="1" as="geometry">
            <mxPoint x="740" y="870" as="sourcePoint" />
            <mxPoint x="197" y="653" as="targetPoint" />
          </mxGeometry>
        </mxCell>
        <mxCell id="xSu46usnXrY1J6GmOUCb-69" value="ValueNotExist" style="html=1;" parent="WIyWlLk6GJQsqaUBKTNV-1" vertex="1">
          <mxGeometry x="762" y="810" width="110" height="40" as="geometry" />
        </mxCell>
        <mxCell id="xSu46usnXrY1J6GmOUCb-70" value="" style="endArrow=diamondThin;endFill=0;endSize=24;html=1;exitX=1;exitY=0.5;exitDx=0;exitDy=0;startArrow=open;startFill=0;entryX=0.5;entryY=1;entryDx=0;entryDy=0;" parent="WIyWlLk6GJQsqaUBKTNV-1" source="xSu46usnXrY1J6GmOUCb-55" target="xSu46usnXrY1J6GmOUCb-45" edge="1">
          <mxGeometry width="160" relative="1" as="geometry">
            <mxPoint x="810" y="289.9999999999999" as="sourcePoint" />
            <mxPoint x="820" y="460" as="targetPoint" />
          </mxGeometry>
        </mxCell>
        <mxCell id="xSu46usnXrY1J6GmOUCb-71" value="" style="endArrow=diamondThin;endFill=0;endSize=24;html=1;exitX=1;exitY=0.5;exitDx=0;exitDy=0;startArrow=open;startFill=0;entryX=0.25;entryY=1;entryDx=0;entryDy=0;" parent="WIyWlLk6GJQsqaUBKTNV-1" source="xSu46usnXrY1J6GmOUCb-60" target="xSu46usnXrY1J6GmOUCb-45" edge="1">
          <mxGeometry width="160" relative="1" as="geometry">
            <mxPoint x="820" y="299.9999999999999" as="sourcePoint" />
            <mxPoint x="730" y="450" as="targetPoint" />
          </mxGeometry>
        </mxCell>
        <mxCell id="xSu46usnXrY1J6GmOUCb-73" value="IdentifierToken" style="html=1;" parent="WIyWlLk6GJQsqaUBKTNV-1" vertex="1">
          <mxGeometry x="-130" y="920" width="119.38" height="40" as="geometry" />
        </mxCell>
        <mxCell id="xSu46usnXrY1J6GmOUCb-74" value="EOFToken" style="html=1;" parent="WIyWlLk6GJQsqaUBKTNV-1" vertex="1">
          <mxGeometry x="10" y="920" width="119.38" height="40" as="geometry" />
        </mxCell>
        <mxCell id="xSu46usnXrY1J6GmOUCb-75" value="" style="endArrow=block;endFill=0;endSize=12;html=1;exitX=0.5;exitY=0;exitDx=0;exitDy=0;entryX=0;entryY=0.75;entryDx=0;entryDy=0;" parent="WIyWlLk6GJQsqaUBKTNV-1" source="xSu46usnXrY1J6GmOUCb-73" target="xSu46usnXrY1J6GmOUCb-63" edge="1">
          <mxGeometry width="160" relative="1" as="geometry">
            <mxPoint x="560" y="990" as="sourcePoint" />
            <mxPoint x="230" y="650" as="targetPoint" />
          </mxGeometry>
        </mxCell>
        <mxCell id="xSu46usnXrY1J6GmOUCb-76" value="" style="endArrow=block;endFill=0;endSize=12;html=1;exitX=0.5;exitY=0;exitDx=0;exitDy=0;entryX=0;entryY=1;entryDx=0;entryDy=0;" parent="WIyWlLk6GJQsqaUBKTNV-1" source="xSu46usnXrY1J6GmOUCb-74" target="xSu46usnXrY1J6GmOUCb-63" edge="1">
          <mxGeometry width="160" relative="1" as="geometry">
            <mxPoint x="370" y="510" as="sourcePoint" />
            <mxPoint x="360" y="660" as="targetPoint" />
          </mxGeometry>
        </mxCell>
        <mxCell id="xSu46usnXrY1J6GmOUCb-77" value="&lt;p style=&quot;margin: 0px ; margin-top: 4px ; text-align: center&quot;&gt;&lt;i&gt;&amp;lt;&amp;lt;Abstract&amp;gt;&amp;gt;&lt;/i&gt;&lt;br&gt;&lt;/p&gt;&lt;div style=&quot;text-align: center&quot;&gt;&lt;b&gt;Node&lt;/b&gt;&lt;/div&gt;" style="verticalAlign=top;align=left;overflow=fill;fontSize=12;fontFamily=Helvetica;html=1;" parent="WIyWlLk6GJQsqaUBKTNV-1" vertex="1">
          <mxGeometry x="1060" y="250" width="90" height="40" as="geometry" />
        </mxCell>
        <mxCell id="xSu46usnXrY1J6GmOUCb-78" value="" style="endArrow=block;endFill=0;endSize=12;html=1;exitX=1;exitY=0.5;exitDx=0;exitDy=0;entryX=0;entryY=0.5;entryDx=0;entryDy=0;" parent="WIyWlLk6GJQsqaUBKTNV-1" source="xSu46usnXrY1J6GmOUCb-45" target="xSu46usnXrY1J6GmOUCb-77" edge="1">
          <mxGeometry width="160" relative="1" as="geometry">
            <mxPoint x="490" y="585" as="sourcePoint" />
            <mxPoint x="930" y="450" as="targetPoint" />
          </mxGeometry>
        </mxCell>
        <mxCell id="xSu46usnXrY1J6GmOUCb-79" value="" style="endArrow=diamondThin;endFill=0;endSize=24;html=1;exitX=0;exitY=0.25;exitDx=0;exitDy=0;startArrow=open;startFill=0;entryX=0.907;entryY=-0.01;entryDx=0;entryDy=0;entryPerimeter=0;" parent="WIyWlLk6GJQsqaUBKTNV-1" source="xSu46usnXrY1J6GmOUCb-72" target="xSu46usnXrY1J6GmOUCb-63" edge="1">
          <mxGeometry width="160" relative="1" as="geometry">
            <mxPoint x="622.5" y="800" as="sourcePoint" />
            <mxPoint x="320" y="520" as="targetPoint" />
          </mxGeometry>
        </mxCell>
        <mxCell id="xSu46usnXrY1J6GmOUCb-80" value="Use" style="endArrow=open;endSize=12;dashed=1;html=1;entryX=0;entryY=0.5;entryDx=0;entryDy=0;exitX=1;exitY=0.25;exitDx=0;exitDy=0;" parent="WIyWlLk6GJQsqaUBKTNV-1" source="xSu46usnXrY1J6GmOUCb-63" target="xSu46usnXrY1J6GmOUCb-72" edge="1">
          <mxGeometry width="160" relative="1" as="geometry">
            <mxPoint x="520" y="660" as="sourcePoint" />
            <mxPoint x="680" y="660" as="targetPoint" />
          </mxGeometry>
        </mxCell>
        <mxCell id="xSu46usnXrY1J6GmOUCb-82" value="&lt;p style=&quot;margin: 0px ; margin-top: 4px ; text-align: center&quot;&gt;&lt;i&gt;&amp;lt;&amp;lt;Interface&amp;gt;&amp;gt;&lt;/i&gt;&lt;br&gt;&lt;/p&gt;&lt;div style=&quot;text-align: center&quot;&gt;&lt;b&gt;IReader&lt;/b&gt;&lt;/div&gt;&lt;hr size=&quot;1&quot;&gt;&lt;p style=&quot;margin: 0px ; margin-left: 4px&quot;&gt;~ read() : char&lt;br&gt;&lt;/p&gt;" style="verticalAlign=top;align=left;overflow=fill;fontSize=12;fontFamily=Helvetica;html=1;" parent="WIyWlLk6GJQsqaUBKTNV-1" vertex="1">
          <mxGeometry x="1147.03" y="520" width="120.95" height="60" as="geometry" />
        </mxCell>
        <mxCell id="xSu46usnXrY1J6GmOUCb-83" value="Reader" style="html=1;" parent="WIyWlLk6GJQsqaUBKTNV-1" vertex="1">
          <mxGeometry x="1147.98" y="675" width="119.37" height="40" as="geometry" />
        </mxCell>
        <mxCell id="xSu46usnXrY1J6GmOUCb-84" value="implements" style="endArrow=block;dashed=1;endFill=0;endSize=12;html=1;exitX=0.5;exitY=0;exitDx=0;exitDy=0;entryX=0.5;entryY=1;entryDx=0;entryDy=0;" parent="WIyWlLk6GJQsqaUBKTNV-1" source="xSu46usnXrY1J6GmOUCb-83" target="xSu46usnXrY1J6GmOUCb-82" edge="1">
          <mxGeometry width="160" relative="1" as="geometry">
            <mxPoint x="697.98" y="790" as="sourcePoint" />
            <mxPoint x="857.98" y="790" as="targetPoint" />
          </mxGeometry>
        </mxCell>
        <mxCell id="xSu46usnXrY1J6GmOUCb-85" value="Environment" style="html=1;" parent="WIyWlLk6GJQsqaUBKTNV-1" vertex="1">
          <mxGeometry x="972.03" y="675" width="120" height="40" as="geometry" />
        </mxCell>
        <mxCell id="xSu46usnXrY1J6GmOUCb-86" value="" style="endArrow=diamondThin;endFill=0;endSize=24;html=1;startArrow=open;startFill=0;entryX=1;entryY=0.5;entryDx=0;entryDy=0;exitX=0;exitY=0.5;exitDx=0;exitDy=0;" parent="WIyWlLk6GJQsqaUBKTNV-1" source="xSu46usnXrY1J6GmOUCb-83" target="xSu46usnXrY1J6GmOUCb-85" edge="1">
          <mxGeometry width="160" relative="1" as="geometry">
            <mxPoint x="1217.03" y="730" as="sourcePoint" />
            <mxPoint x="1137.03" y="680" as="targetPoint" />
          </mxGeometry>
        </mxCell>
        <mxCell id="xSu46usnXrY1J6GmOUCb-88" value="SymbolTable" style="html=1;" parent="WIyWlLk6GJQsqaUBKTNV-1" vertex="1">
          <mxGeometry x="972.03" y="810" width="120" height="40" as="geometry" />
        </mxCell>
        <mxCell id="xSu46usnXrY1J6GmOUCb-89" value="" style="endArrow=diamondThin;endFill=0;endSize=24;html=1;exitX=0.25;exitY=0;exitDx=0;exitDy=0;startArrow=open;startFill=0;entryX=0.25;entryY=1;entryDx=0;entryDy=0;" parent="WIyWlLk6GJQsqaUBKTNV-1" source="xSu46usnXrY1J6GmOUCb-88" target="xSu46usnXrY1J6GmOUCb-85" edge="1">
          <mxGeometry width="160" relative="1" as="geometry">
            <mxPoint x="1106.41" y="760" as="sourcePoint" />
            <mxPoint x="1197.03" y="760" as="targetPoint" />
          </mxGeometry>
        </mxCell>
        <mxCell id="xSu46usnXrY1J6GmOUCb-91" value="Lexer" style="html=1;" parent="WIyWlLk6GJQsqaUBKTNV-1" vertex="1">
          <mxGeometry x="972.03" y="530" width="120" height="40" as="geometry" />
        </mxCell>
        <mxCell id="xSu46usnXrY1J6GmOUCb-92" value="" style="endArrow=diamondThin;endFill=0;endSize=24;html=1;entryX=0.25;entryY=0;entryDx=0;entryDy=0;exitX=0.25;exitY=1;exitDx=0;exitDy=0;startArrow=open;startFill=0;" parent="WIyWlLk6GJQsqaUBKTNV-1" source="xSu46usnXrY1J6GmOUCb-91" target="xSu46usnXrY1J6GmOUCb-85" edge="1">
          <mxGeometry width="160" relative="1" as="geometry">
            <mxPoint x="928.8999999999999" y="560" as="sourcePoint" />
            <mxPoint x="1305.78" y="740" as="targetPoint" />
          </mxGeometry>
        </mxCell>
        <mxCell id="xSu46usnXrY1J6GmOUCb-93" value="Use" style="endArrow=open;endSize=12;dashed=1;html=1;exitX=0.75;exitY=0;exitDx=0;exitDy=0;entryX=0.75;entryY=1;entryDx=0;entryDy=0;" parent="WIyWlLk6GJQsqaUBKTNV-1" source="xSu46usnXrY1J6GmOUCb-85" target="xSu46usnXrY1J6GmOUCb-91" edge="1">
          <mxGeometry width="160" relative="1" as="geometry">
            <mxPoint x="1305.78" y="760" as="sourcePoint" />
            <mxPoint x="1276.3999999999999" y="780" as="targetPoint" />
          </mxGeometry>
        </mxCell>
        <mxCell id="xSu46usnXrY1J6GmOUCb-94" value="" style="endArrow=diamondThin;endFill=0;endSize=24;html=1;entryX=1;entryY=0.5;entryDx=0;entryDy=0;startArrow=open;startFill=0;exitX=0;exitY=0.5;exitDx=0;exitDy=0;" parent="WIyWlLk6GJQsqaUBKTNV-1" source="xSu46usnXrY1J6GmOUCb-82" target="xSu46usnXrY1J6GmOUCb-91" edge="1">
          <mxGeometry width="160" relative="1" as="geometry">
            <mxPoint x="1277.03" y="510" as="sourcePoint" />
            <mxPoint x="1227.03" y="740" as="targetPoint" />
          </mxGeometry>
        </mxCell>
        <mxCell id="xSu46usnXrY1J6GmOUCb-95" value="Use" style="endArrow=open;endSize=12;dashed=1;html=1;exitX=0;exitY=0.5;exitDx=0;exitDy=0;entryX=1;entryY=0.5;entryDx=0;entryDy=0;" parent="WIyWlLk6GJQsqaUBKTNV-1" source="xSu46usnXrY1J6GmOUCb-91" target="xSu46usnXrY1J6GmOUCb-63" edge="1">
          <mxGeometry width="160" relative="1" as="geometry">
            <mxPoint x="970" y="575" as="sourcePoint" />
            <mxPoint x="280" y="610" as="targetPoint" />
            <Array as="points" />
          </mxGeometry>
        </mxCell>
        <mxCell id="xSu46usnXrY1J6GmOUCb-96" value="&lt;p style=&quot;margin: 0px ; margin-top: 4px ; text-align: center&quot;&gt;&lt;i&gt;&amp;lt;&amp;lt;Interface&amp;gt;&amp;gt;&lt;/i&gt;&lt;br&gt;&lt;/p&gt;&lt;div style=&quot;text-align: center&quot;&gt;&lt;b&gt;ILexer&lt;/b&gt;&lt;/div&gt;&lt;hr size=&quot;1&quot;&gt;&lt;p style=&quot;margin: 0px ; margin-left: 4px&quot;&gt;~ getToken() : Token&lt;/p&gt;&lt;p style=&quot;margin: 0px ; margin-left: 4px&quot;&gt;~ getPosition() : String&lt;/p&gt;" style="verticalAlign=top;align=left;overflow=fill;fontSize=12;fontFamily=Helvetica;html=1;" parent="WIyWlLk6GJQsqaUBKTNV-1" vertex="1">
          <mxGeometry x="962.03" y="390" width="140" height="85" as="geometry" />
        </mxCell>
        <mxCell id="xSu46usnXrY1J6GmOUCb-97" value="implements" style="endArrow=block;dashed=1;endFill=0;endSize=12;html=1;exitX=0.5;exitY=0;exitDx=0;exitDy=0;entryX=0.5;entryY=1;entryDx=0;entryDy=0;" parent="WIyWlLk6GJQsqaUBKTNV-1" source="xSu46usnXrY1J6GmOUCb-91" target="xSu46usnXrY1J6GmOUCb-96" edge="1">
          <mxGeometry width="160" relative="1" as="geometry">
            <mxPoint x="1027.665" y="530" as="sourcePoint" />
            <mxPoint x="677.98" y="645" as="targetPoint" />
          </mxGeometry>
        </mxCell>
        <mxCell id="xSu46usnXrY1J6GmOUCb-98" value="Use" style="endArrow=open;endSize=12;dashed=1;html=1;exitX=0;exitY=1;exitDx=0;exitDy=0;" parent="WIyWlLk6GJQsqaUBKTNV-1" source="xSu46usnXrY1J6GmOUCb-72" target="xSu46usnXrY1J6GmOUCb-63" edge="1">
          <mxGeometry width="160" relative="1" as="geometry">
            <mxPoint x="965" y="560" as="sourcePoint" />
            <mxPoint x="430" y="560" as="targetPoint" />
          </mxGeometry>
        </mxCell>
        <mxCell id="xSu46usnXrY1J6GmOUCb-99" value="" style="endArrow=diamondThin;endFill=0;endSize=24;html=1;startArrow=open;startFill=0;" parent="WIyWlLk6GJQsqaUBKTNV-1" source="xSu46usnXrY1J6GmOUCb-96" edge="1">
          <mxGeometry width="160" relative="1" as="geometry">
            <mxPoint x="810" y="290" as="sourcePoint" />
            <mxPoint x="770" y="290" as="targetPoint" />
          </mxGeometry>
        </mxCell>
        <mxCell id="xPq2tLkL5Jogo3bYWdEb-2" value="1" style="text;html=1;align=center;verticalAlign=middle;resizable=0;points=[];autosize=1;" parent="WIyWlLk6GJQsqaUBKTNV-1" vertex="1">
          <mxGeometry x="370" y="500" width="20" height="20" as="geometry" />
        </mxCell>
        <mxCell id="xPq2tLkL5Jogo3bYWdEb-9" value="0..*" style="text;html=1;align=center;verticalAlign=middle;resizable=0;points=[];autosize=1;" parent="WIyWlLk6GJQsqaUBKTNV-1" vertex="1">
          <mxGeometry x="305" y="190" width="30" height="20" as="geometry" />
        </mxCell>
        <mxCell id="xPq2tLkL5Jogo3bYWdEb-11" value="1" style="text;html=1;align=center;verticalAlign=middle;resizable=0;points=[];autosize=1;" parent="WIyWlLk6GJQsqaUBKTNV-1" vertex="1">
          <mxGeometry x="980" y="570" width="20" height="20" as="geometry" />
        </mxCell>
        <mxCell id="xPq2tLkL5Jogo3bYWdEb-12" value="1" style="text;html=1;align=center;verticalAlign=middle;resizable=0;points=[];autosize=1;" parent="WIyWlLk6GJQsqaUBKTNV-1" vertex="1">
          <mxGeometry x="980" y="790" width="20" height="20" as="geometry" />
        </mxCell>
        <mxCell id="xPq2tLkL5Jogo3bYWdEb-13" value="1" style="text;html=1;align=center;verticalAlign=middle;resizable=0;points=[];autosize=1;" parent="WIyWlLk6GJQsqaUBKTNV-1" vertex="1">
          <mxGeometry x="1127.98" y="695" width="20" height="20" as="geometry" />
        </mxCell>
        <mxCell id="xPq2tLkL5Jogo3bYWdEb-14" value="1" style="text;html=1;align=center;verticalAlign=middle;resizable=0;points=[];autosize=1;" parent="WIyWlLk6GJQsqaUBKTNV-1" vertex="1">
          <mxGeometry x="1127.03" y="530" width="20" height="20" as="geometry" />
        </mxCell>
        <mxCell id="xPq2tLkL5Jogo3bYWdEb-15" value="0..*" style="text;html=1;align=center;verticalAlign=middle;resizable=0;points=[];autosize=1;" parent="WIyWlLk6GJQsqaUBKTNV-1" vertex="1">
          <mxGeometry x="860" y="240" width="30" height="20" as="geometry" />
        </mxCell>
        <mxCell id="xPq2tLkL5Jogo3bYWdEb-16" value="1" style="text;html=1;align=center;verticalAlign=middle;resizable=0;points=[];autosize=1;" parent="WIyWlLk6GJQsqaUBKTNV-1" vertex="1">
          <mxGeometry x="850" y="210" width="20" height="20" as="geometry" />
        </mxCell>
        <mxCell id="xPq2tLkL5Jogo3bYWdEb-17" value="1" style="text;html=1;align=center;verticalAlign=middle;resizable=0;points=[];autosize=1;" parent="WIyWlLk6GJQsqaUBKTNV-1" vertex="1">
          <mxGeometry x="500" y="200" width="20" height="20" as="geometry" />
        </mxCell>
        <mxCell id="xPq2tLkL5Jogo3bYWdEb-18" value="1" style="text;html=1;align=center;verticalAlign=middle;resizable=0;points=[];autosize=1;" parent="WIyWlLk6GJQsqaUBKTNV-1" vertex="1">
          <mxGeometry x="500" y="230" width="20" height="20" as="geometry" />
        </mxCell>
        <mxCell id="xPq2tLkL5Jogo3bYWdEb-19" value="0..*" style="text;html=1;align=center;verticalAlign=middle;resizable=0;points=[];autosize=1;" parent="WIyWlLk6GJQsqaUBKTNV-1" vertex="1">
          <mxGeometry x="975" y="230" width="30" height="20" as="geometry" />
        </mxCell>
        <mxCell id="xPq2tLkL5Jogo3bYWdEb-20" value="1" style="text;html=1;align=center;verticalAlign=middle;resizable=0;points=[];autosize=1;" parent="WIyWlLk6GJQsqaUBKTNV-1" vertex="1">
          <mxGeometry x="560.63" y="745" width="20" height="20" as="geometry" />
        </mxCell>
        <mxCell id="xPq2tLkL5Jogo3bYWdEb-38" value="1" style="text;html=1;align=center;verticalAlign=middle;resizable=0;points=[];autosize=1;" parent="WIyWlLk6GJQsqaUBKTNV-1" vertex="1">
          <mxGeometry x="960" y="370" width="20" height="20" as="geometry" />
        </mxCell>
        <mxCell id="EfhlNPPiDYfHa7tNTGEx-3" value="Use" style="endArrow=open;endSize=12;dashed=1;html=1;exitX=0.5;exitY=1;exitDx=0;exitDy=0;" parent="WIyWlLk6GJQsqaUBKTNV-1" source="xSu46usnXrY1J6GmOUCb-39" target="xSu46usnXrY1J6GmOUCb-45" edge="1">
          <mxGeometry width="160" relative="1" as="geometry">
            <mxPoint x="945" y="250" as="sourcePoint" />
            <mxPoint x="900" y="120" as="targetPoint" />
          </mxGeometry>
        </mxCell>
        <mxCell id="EfhlNPPiDYfHa7tNTGEx-4" value="Use" style="endArrow=open;endSize=12;dashed=1;html=1;entryX=0;entryY=1;entryDx=0;entryDy=0;exitX=0.25;exitY=0;exitDx=0;exitDy=0;" parent="WIyWlLk6GJQsqaUBKTNV-1" source="xSu46usnXrY1J6GmOUCb-38" target="xSu46usnXrY1J6GmOUCb-39" edge="1">
          <mxGeometry width="160" relative="1" as="geometry">
            <mxPoint x="530" y="511.7813226985711" as="sourcePoint" />
            <mxPoint x="670.6300000000001" y="435" as="targetPoint" />
          </mxGeometry>
        </mxCell>
        <mxCell id="EfhlNPPiDYfHa7tNTGEx-6" value="" style="endArrow=diamondThin;endFill=0;endSize=24;html=1;exitX=1;exitY=1;exitDx=0;exitDy=0;startArrow=open;startFill=0;entryX=0.126;entryY=-0.007;entryDx=0;entryDy=0;entryPerimeter=0;" parent="WIyWlLk6GJQsqaUBKTNV-1" source="xSu46usnXrY1J6GmOUCb-31" target="xSu46usnXrY1J6GmOUCb-85" edge="1">
          <mxGeometry width="160" relative="1" as="geometry">
            <mxPoint x="1012.0299999999997" y="580" as="sourcePoint" />
            <mxPoint x="1012.0299999999997" y="685" as="targetPoint" />
          </mxGeometry>
        </mxCell>
        <mxCell id="EfhlNPPiDYfHa7tNTGEx-7" value="Use" style="endArrow=open;endSize=12;dashed=1;html=1;entryX=0.75;entryY=1;entryDx=0;entryDy=0;exitX=0;exitY=0.25;exitDx=0;exitDy=0;" parent="WIyWlLk6GJQsqaUBKTNV-1" source="xSu46usnXrY1J6GmOUCb-85" target="xSu46usnXrY1J6GmOUCb-31" edge="1">
          <mxGeometry width="160" relative="1" as="geometry">
            <mxPoint x="950" y="685" as="sourcePoint" />
            <mxPoint x="1072.0299999999997" y="580" as="targetPoint" />
          </mxGeometry>
        </mxCell>
        <mxCell id="EfhlNPPiDYfHa7tNTGEx-8" value="" style="endArrow=diamondThin;endFill=0;endSize=24;html=1;entryX=0;entryY=0;entryDx=0;entryDy=0;exitX=1;exitY=0.5;exitDx=0;exitDy=0;startArrow=open;startFill=0;" parent="WIyWlLk6GJQsqaUBKTNV-1" source="xSu46usnXrY1J6GmOUCb-31" target="xSu46usnXrY1J6GmOUCb-91" edge="1">
          <mxGeometry width="160" relative="1" as="geometry">
            <mxPoint x="1012.0299999999997" y="580" as="sourcePoint" />
            <mxPoint x="1012.0299999999997" y="685" as="targetPoint" />
          </mxGeometry>
        </mxCell>
        <mxCell id="EfhlNPPiDYfHa7tNTGEx-11" value="1" style="text;html=1;align=center;verticalAlign=middle;resizable=0;points=[];autosize=1;" parent="WIyWlLk6GJQsqaUBKTNV-1" vertex="1">
          <mxGeometry x="310" y="220" width="20" height="20" as="geometry" />
        </mxCell>
        <mxCell id="EfhlNPPiDYfHa7tNTGEx-13" value="Use" style="endArrow=open;endSize=12;dashed=1;html=1;exitX=0.75;exitY=1;exitDx=0;exitDy=0;entryX=0.5;entryY=0;entryDx=0;entryDy=0;" parent="WIyWlLk6GJQsqaUBKTNV-1" source="xSu46usnXrY1J6GmOUCb-17" target="xSu46usnXrY1J6GmOUCb-63" edge="1">
          <mxGeometry width="160" relative="1" as="geometry">
            <mxPoint x="972.0299999999997" y="442.5" as="sourcePoint" />
            <mxPoint x="210" y="549" as="targetPoint" />
          </mxGeometry>
        </mxCell>
        <mxCell id="EfhlNPPiDYfHa7tNTGEx-14" value="" style="endArrow=diamondThin;endFill=0;endSize=24;html=1;entryX=1;entryY=0;entryDx=0;entryDy=0;exitX=0.25;exitY=1;exitDx=0;exitDy=0;startArrow=open;startFill=0;" parent="WIyWlLk6GJQsqaUBKTNV-1" source="xSu46usnXrY1J6GmOUCb-50" target="xSu46usnXrY1J6GmOUCb-38" edge="1">
          <mxGeometry width="160" relative="1" as="geometry">
            <mxPoint x="855" y="210" as="sourcePoint" />
            <mxPoint x="927.5" y="260" as="targetPoint" />
          </mxGeometry>
        </mxCell>
        <mxCell id="EfhlNPPiDYfHa7tNTGEx-15" value="1" style="text;html=1;align=center;verticalAlign=middle;resizable=0;points=[];autosize=1;" parent="WIyWlLk6GJQsqaUBKTNV-1" vertex="1">
          <mxGeometry x="807" y="210" width="20" height="20" as="geometry" />
        </mxCell>
        <mxCell id="EfhlNPPiDYfHa7tNTGEx-16" value="" style="endArrow=diamondThin;endFill=0;endSize=24;html=1;startArrow=open;startFill=0;exitX=1;exitY=0.75;exitDx=0;exitDy=0;entryX=0;entryY=0.25;entryDx=0;entryDy=0;" parent="WIyWlLk6GJQsqaUBKTNV-1" source="xSu46usnXrY1J6GmOUCb-26" target="xSu46usnXrY1J6GmOUCb-38" edge="1">
          <mxGeometry width="160" relative="1" as="geometry">
            <mxPoint x="863.0199999999998" y="407.1766555391663" as="sourcePoint" />
            <mxPoint x="651" y="290" as="targetPoint" />
          </mxGeometry>
        </mxCell>
        <mxCell id="EfhlNPPiDYfHa7tNTGEx-17" value="1" style="text;html=1;align=center;verticalAlign=middle;resizable=0;points=[];autosize=1;" parent="WIyWlLk6GJQsqaUBKTNV-1" vertex="1">
          <mxGeometry x="220" y="390" width="20" height="20" as="geometry" />
        </mxCell>
        <mxCell id="EfhlNPPiDYfHa7tNTGEx-19" value="" style="endArrow=diamondThin;endFill=0;endSize=24;html=1;entryX=1;entryY=0.5;entryDx=0;entryDy=0;exitX=0;exitY=0.5;exitDx=0;exitDy=0;startArrow=open;startFill=0;" parent="WIyWlLk6GJQsqaUBKTNV-1" source="xSu46usnXrY1J6GmOUCb-45" target="xSu46usnXrY1J6GmOUCb-38" edge="1">
          <mxGeometry width="160" relative="1" as="geometry">
            <mxPoint x="827.4999999999995" y="209.9999999999999" as="sourcePoint" />
            <mxPoint x="779.3800000000001" y="260" as="targetPoint" />
          </mxGeometry>
        </mxCell>
        <mxCell id="EfhlNPPiDYfHa7tNTGEx-20" value="1" style="text;html=1;align=center;verticalAlign=middle;resizable=0;points=[];autosize=1;" parent="WIyWlLk6GJQsqaUBKTNV-1" vertex="1">
          <mxGeometry x="860" y="260" width="20" height="20" as="geometry" />
        </mxCell>
        <mxCell id="EfhlNPPiDYfHa7tNTGEx-23" value="" style="endArrow=diamondThin;endFill=0;endSize=24;html=1;startArrow=open;startFill=0;exitX=0.688;exitY=0.013;exitDx=0;exitDy=0;entryX=0;entryY=1;entryDx=0;entryDy=0;exitPerimeter=0;" parent="WIyWlLk6GJQsqaUBKTNV-1" source="xSu46usnXrY1J6GmOUCb-63" target="xSu46usnXrY1J6GmOUCb-38" edge="1">
          <mxGeometry width="160" relative="1" as="geometry">
            <mxPoint x="230" y="400" as="sourcePoint" />
            <mxPoint x="660.6300000000001" y="260" as="targetPoint" />
          </mxGeometry>
        </mxCell>
        <mxCell id="xSu46usnXrY1J6GmOUCb-72" value="&lt;p style=&quot;margin: 0px ; margin-top: 4px ; text-align: center&quot;&gt;&lt;i&gt;&amp;lt;&amp;lt;Enumeration&amp;gt;&amp;gt;&lt;/i&gt;&lt;br&gt;&lt;/p&gt;&lt;div style=&quot;text-align: center&quot;&gt;&lt;b&gt;TokenType&lt;/b&gt;&lt;/div&gt;&lt;hr size=&quot;1&quot;&gt;&lt;p style=&quot;margin: 0px ; margin-left: 4px&quot;&gt;EOF&lt;/p&gt;&lt;p style=&quot;margin: 0px ; margin-left: 4px&quot;&gt;EOL&lt;/p&gt;&lt;p style=&quot;margin: 0px ; margin-left: 4px&quot;&gt;NUMBER&lt;/p&gt;&lt;p style=&quot;margin: 0px ; margin-left: 4px&quot;&gt;COMMENT&lt;/p&gt;&lt;p style=&quot;margin: 0px ; margin-left: 4px&quot;&gt;IDENT&lt;/p&gt;&lt;p style=&quot;margin: 0px ; margin-left: 4px&quot;&gt;ILLEGAL_CHAR&lt;br&gt;MNEMONIC&lt;/p&gt;" style="verticalAlign=top;align=left;overflow=fill;fontSize=12;fontFamily=Helvetica;html=1;" parent="WIyWlLk6GJQsqaUBKTNV-1" vertex="1">
          <mxGeometry x="400.62" y="475" width="119.38" height="150" as="geometry" />
        </mxCell>
        <mxCell id="EfhlNPPiDYfHa7tNTGEx-24" value="Use" style="endArrow=open;endSize=12;dashed=1;html=1;exitX=0;exitY=1;exitDx=0;exitDy=0;" parent="WIyWlLk6GJQsqaUBKTNV-1" source="xSu46usnXrY1J6GmOUCb-96" target="xSu46usnXrY1J6GmOUCb-72" edge="1">
          <mxGeometry width="160" relative="1" as="geometry">
            <mxPoint x="962.0299999999997" y="475" as="sourcePoint" />
            <mxPoint x="309.1199999999999" y="587.8961419817128" as="targetPoint" />
          </mxGeometry>
        </mxCell>
        <mxCell id="EfhlNPPiDYfHa7tNTGEx-26" value="1" style="text;html=1;align=center;verticalAlign=middle;resizable=0;points=[];autosize=1;" parent="WIyWlLk6GJQsqaUBKTNV-1" vertex="1">
          <mxGeometry x="560.63" y="820" width="20" height="20" as="geometry" />
        </mxCell>
        <mxCell id="EfhlNPPiDYfHa7tNTGEx-27" style="edgeStyle=orthogonalEdgeStyle;rounded=0;orthogonalLoop=1;jettySize=auto;html=1;exitX=0.5;exitY=1;exitDx=0;exitDy=0;entryX=0.75;entryY=1;entryDx=0;entryDy=0;" parent="WIyWlLk6GJQsqaUBKTNV-1" source="xSu46usnXrY1J6GmOUCb-38" target="xSu46usnXrY1J6GmOUCb-38" edge="1">
          <mxGeometry relative="1" as="geometry" />
        </mxCell>
        <mxCell id="EfhlNPPiDYfHa7tNTGEx-32" value="Use" style="endArrow=open;endSize=12;dashed=1;html=1;exitX=1;exitY=1;exitDx=0;exitDy=0;entryX=0;entryY=1;entryDx=0;entryDy=0;" parent="WIyWlLk6GJQsqaUBKTNV-1" source="xSu46usnXrY1J6GmOUCb-12" target="xSu46usnXrY1J6GmOUCb-85" edge="1">
          <mxGeometry width="160" relative="1" as="geometry">
            <mxPoint x="982.0299999999997" y="715" as="sourcePoint" />
            <mxPoint x="950" y="730" as="targetPoint" />
          </mxGeometry>
        </mxCell>
        <mxCell id="EfhlNPPiDYfHa7tNTGEx-33" value="Use" style="endArrow=open;endSize=12;dashed=1;html=1;exitX=1;exitY=0.5;exitDx=0;exitDy=0;entryX=0;entryY=0.75;entryDx=0;entryDy=0;" parent="WIyWlLk6GJQsqaUBKTNV-1" source="xSu46usnXrY1J6GmOUCb-12" target="xSu46usnXrY1J6GmOUCb-38" edge="1">
          <mxGeometry width="160" relative="1" as="geometry">
            <mxPoint x="992.0299999999997" y="725" as="sourcePoint" />
            <mxPoint x="482.5" y="250" as="targetPoint" />
          </mxGeometry>
        </mxCell>
        <mxCell id="EfhlNPPiDYfHa7tNTGEx-34" value="Use" style="endArrow=open;endSize=12;dashed=1;html=1;exitX=0.75;exitY=0;exitDx=0;exitDy=0;entryX=0;entryY=0.75;entryDx=0;entryDy=0;" parent="WIyWlLk6GJQsqaUBKTNV-1" source="xSu46usnXrY1J6GmOUCb-12" target="xSu46usnXrY1J6GmOUCb-39" edge="1">
          <mxGeometry width="160" relative="1" as="geometry">
            <mxPoint x="1002.0299999999997" y="735" as="sourcePoint" />
            <mxPoint x="492.5" y="260" as="targetPoint" />
          </mxGeometry>
        </mxCell>
        <mxCell id="EfhlNPPiDYfHa7tNTGEx-35" value="Use" style="endArrow=open;endSize=12;dashed=1;html=1;exitX=1;exitY=0.75;exitDx=0;exitDy=0;entryX=0.25;entryY=0;entryDx=0;entryDy=0;" parent="WIyWlLk6GJQsqaUBKTNV-1" source="xSu46usnXrY1J6GmOUCb-12" target="xSu46usnXrY1J6GmOUCb-23" edge="1">
          <mxGeometry width="160" relative="1" as="geometry">
            <mxPoint x="490" y="400" as="sourcePoint" />
            <mxPoint x="982.0299999999997" y="725" as="targetPoint" />
          </mxGeometry>
        </mxCell>
        <mxCell id="EfhlNPPiDYfHa7tNTGEx-36" value="Use" style="endArrow=open;endSize=12;dashed=1;html=1;exitX=0.5;exitY=1;exitDx=0;exitDy=0;entryX=0.5;entryY=0;entryDx=0;entryDy=0;" parent="WIyWlLk6GJQsqaUBKTNV-1" source="xSu46usnXrY1J6GmOUCb-38" target="xSu46usnXrY1J6GmOUCb-23" edge="1">
          <mxGeometry width="160" relative="1" as="geometry">
            <mxPoint x="500" y="410" as="sourcePoint" />
            <mxPoint x="992.0299999999997" y="735" as="targetPoint" />
          </mxGeometry>
        </mxCell>
        <mxCell id="EfhlNPPiDYfHa7tNTGEx-38" value="Use" style="endArrow=open;endSize=12;dashed=1;html=1;exitX=0;exitY=0.5;exitDx=0;exitDy=0;entryX=1;entryY=0.5;entryDx=0;entryDy=0;" parent="WIyWlLk6GJQsqaUBKTNV-1" source="xSu46usnXrY1J6GmOUCb-88" target="xSu46usnXrY1J6GmOUCb-69" edge="1">
          <mxGeometry width="160" relative="1" as="geometry">
            <mxPoint x="490" y="400" as="sourcePoint" />
            <mxPoint x="890" y="820" as="targetPoint" />
          </mxGeometry>
        </mxCell>
      </root>
    </mxGraphModel>
  </diagram>
  <diagram id="uuSbsRflCccKONBmuKc8" name="use-case">
    <mxGraphModel dx="920" dy="784" grid="1" gridSize="10" guides="1" tooltips="1" connect="1" arrows="1" fold="1" page="1" pageScale="1" pageWidth="850" pageHeight="1100" math="0" shadow="0">
      <root>
        <mxCell id="AJi2E8SLPrvwf800cju8-0" />
        <mxCell id="AJi2E8SLPrvwf800cju8-1" parent="AJi2E8SLPrvwf800cju8-0" />
        <mxCell id="AJi2E8SLPrvwf800cju8-2" value="Actor" style="shape=umlActor;verticalLabelPosition=bottom;verticalAlign=top;html=1;outlineConnect=0;" vertex="1" parent="AJi2E8SLPrvwf800cju8-1">
          <mxGeometry x="40" y="240" width="40" height="80" as="geometry" />
        </mxCell>
        <mxCell id="AJi2E8SLPrvwf800cju8-3" value="" style="rounded=0;whiteSpace=wrap;html=1;fillColor=none;" vertex="1" parent="AJi2E8SLPrvwf800cju8-1">
          <mxGeometry x="120" y="80" width="590" height="320" as="geometry" />
        </mxCell>
        <mxCell id="AJi2E8SLPrvwf800cju8-6" value="Run Assembler&lt;br&gt;Extension Point:&lt;br&gt;Command Line Options" style="ellipse;whiteSpace=wrap;html=1;fillColor=none;" vertex="1" parent="AJi2E8SLPrvwf800cju8-1">
          <mxGeometry x="160" y="230" width="150" height="70" as="geometry" />
        </mxCell>
        <mxCell id="AJi2E8SLPrvwf800cju8-7" value="Verbose Option" style="ellipse;whiteSpace=wrap;html=1;fillColor=none;" vertex="1" parent="AJi2E8SLPrvwf800cju8-1">
          <mxGeometry x="185" y="350" width="100" height="30" as="geometry" />
        </mxCell>
        <mxCell id="AJi2E8SLPrvwf800cju8-9" value="" style="endArrow=none;html=1;exitX=1;exitY=0.3333333333333333;exitDx=0;exitDy=0;exitPerimeter=0;entryX=0;entryY=0.5;entryDx=0;entryDy=0;" edge="1" parent="AJi2E8SLPrvwf800cju8-1" source="AJi2E8SLPrvwf800cju8-2" target="AJi2E8SLPrvwf800cju8-6">
          <mxGeometry width="50" height="50" relative="1" as="geometry">
            <mxPoint x="410" y="420" as="sourcePoint" />
            <mxPoint x="460" y="370" as="targetPoint" />
          </mxGeometry>
        </mxCell>
        <mxCell id="AJi2E8SLPrvwf800cju8-10" value="Listing Option" style="ellipse;whiteSpace=wrap;html=1;fillColor=none;" vertex="1" parent="AJi2E8SLPrvwf800cju8-1">
          <mxGeometry x="185" y="150" width="100" height="30" as="geometry" />
        </mxCell>
        <mxCell id="AJi2E8SLPrvwf800cju8-11" value="" style="endArrow=classic;html=1;exitX=0.5;exitY=0;exitDx=0;exitDy=0;entryX=0.5;entryY=1;entryDx=0;entryDy=0;" edge="1" parent="AJi2E8SLPrvwf800cju8-1" source="AJi2E8SLPrvwf800cju8-7" target="AJi2E8SLPrvwf800cju8-6">
          <mxGeometry relative="1" as="geometry">
            <mxPoint x="380" y="390" as="sourcePoint" />
            <mxPoint x="480" y="390" as="targetPoint" />
          </mxGeometry>
        </mxCell>
        <mxCell id="AJi2E8SLPrvwf800cju8-12" value="extend" style="edgeLabel;resizable=0;html=1;align=center;verticalAlign=middle;" connectable="0" vertex="1" parent="AJi2E8SLPrvwf800cju8-11">
          <mxGeometry relative="1" as="geometry" />
        </mxCell>
        <mxCell id="AJi2E8SLPrvwf800cju8-13" value="" style="endArrow=classic;html=1;entryX=0.5;entryY=0;entryDx=0;entryDy=0;exitX=0.5;exitY=1;exitDx=0;exitDy=0;" edge="1" parent="AJi2E8SLPrvwf800cju8-1" source="AJi2E8SLPrvwf800cju8-10" target="AJi2E8SLPrvwf800cju8-6">
          <mxGeometry relative="1" as="geometry">
            <mxPoint x="210" y="275" as="sourcePoint" />
            <mxPoint x="250" y="170" as="targetPoint" />
          </mxGeometry>
        </mxCell>
        <mxCell id="AJi2E8SLPrvwf800cju8-14" value="extend" style="edgeLabel;resizable=0;html=1;align=center;verticalAlign=middle;" connectable="0" vertex="1" parent="AJi2E8SLPrvwf800cju8-13">
          <mxGeometry relative="1" as="geometry" />
        </mxCell>
        <mxCell id="AJi2E8SLPrvwf800cju8-16" value="include" style="endArrow=classic;html=1;exitX=0.5;exitY=0;exitDx=0;exitDy=0;entryX=0;entryY=0.5;entryDx=0;entryDy=0;" edge="1" parent="AJi2E8SLPrvwf800cju8-1" source="AJi2E8SLPrvwf800cju8-10" target="AJi2E8SLPrvwf800cju8-18">
          <mxGeometry relative="1" as="geometry">
            <mxPoint x="245" y="360" as="sourcePoint" />
            <mxPoint x="245" y="310" as="targetPoint" />
          </mxGeometry>
        </mxCell>
        <mxCell id="AJi2E8SLPrvwf800cju8-18" value="Generate Listing File" style="ellipse;whiteSpace=wrap;html=1;fillColor=none;" vertex="1" parent="AJi2E8SLPrvwf800cju8-1">
          <mxGeometry x="285" y="90" width="110" height="50" as="geometry" />
        </mxCell>
        <mxCell id="AJi2E8SLPrvwf800cju8-19" value="include" style="endArrow=classic;html=1;exitX=1;exitY=0.5;exitDx=0;exitDy=0;entryX=0;entryY=0.5;entryDx=0;entryDy=0;" edge="1" parent="AJi2E8SLPrvwf800cju8-1" source="AJi2E8SLPrvwf800cju8-6" target="AJi2E8SLPrvwf800cju8-20">
          <mxGeometry relative="1" as="geometry">
            <mxPoint x="245" y="160" as="sourcePoint" />
            <mxPoint x="295" y="125" as="targetPoint" />
          </mxGeometry>
        </mxCell>
        <mxCell id="AJi2E8SLPrvwf800cju8-20" value="Generate .exe File" style="ellipse;whiteSpace=wrap;html=1;fillColor=none;" vertex="1" parent="AJi2E8SLPrvwf800cju8-1">
          <mxGeometry x="370" y="242.5" width="110" height="45" as="geometry" />
        </mxCell>
        <mxCell id="AJi2E8SLPrvwf800cju8-21" value="include" style="endArrow=classic;html=1;exitX=1;exitY=0;exitDx=0;exitDy=0;entryX=0;entryY=1;entryDx=0;entryDy=0;" edge="1" parent="AJi2E8SLPrvwf800cju8-1" source="AJi2E8SLPrvwf800cju8-20" target="AJi2E8SLPrvwf800cju8-24">
          <mxGeometry relative="1" as="geometry">
            <mxPoint x="320" y="275" as="sourcePoint" />
            <mxPoint x="380" y="275" as="targetPoint" />
          </mxGeometry>
        </mxCell>
        <mxCell id="AJi2E8SLPrvwf800cju8-22" value="Generate/Set Offsets" style="ellipse;whiteSpace=wrap;html=1;fillColor=none;" vertex="1" parent="AJi2E8SLPrvwf800cju8-1">
          <mxGeometry x="520" y="335" width="110" height="45" as="geometry" />
        </mxCell>
        <mxCell id="AJi2E8SLPrvwf800cju8-23" value="Generate Symbol Table" style="ellipse;whiteSpace=wrap;html=1;fillColor=none;" vertex="1" parent="AJi2E8SLPrvwf800cju8-1">
          <mxGeometry x="570" y="240" width="110" height="45" as="geometry" />
        </mxCell>
        <mxCell id="AJi2E8SLPrvwf800cju8-24" value="Generate Instructions" style="ellipse;whiteSpace=wrap;html=1;fillColor=none;" vertex="1" parent="AJi2E8SLPrvwf800cju8-1">
          <mxGeometry x="520" y="150" width="110" height="45" as="geometry" />
        </mxCell>
        <mxCell id="AJi2E8SLPrvwf800cju8-25" value="include" style="endArrow=classic;html=1;exitX=1;exitY=1;exitDx=0;exitDy=0;entryX=0;entryY=0;entryDx=0;entryDy=0;" edge="1" parent="AJi2E8SLPrvwf800cju8-1" source="AJi2E8SLPrvwf800cju8-20" target="AJi2E8SLPrvwf800cju8-22">
          <mxGeometry relative="1" as="geometry">
            <mxPoint x="490" y="275" as="sourcePoint" />
            <mxPoint x="530" y="192.5" as="targetPoint" />
          </mxGeometry>
        </mxCell>
        <mxCell id="AJi2E8SLPrvwf800cju8-26" value="include" style="endArrow=classic;html=1;exitX=1;exitY=0.5;exitDx=0;exitDy=0;entryX=0;entryY=0.5;entryDx=0;entryDy=0;" edge="1" parent="AJi2E8SLPrvwf800cju8-1" source="AJi2E8SLPrvwf800cju8-20" target="AJi2E8SLPrvwf800cju8-23">
          <mxGeometry relative="1" as="geometry">
            <mxPoint x="500" y="285" as="sourcePoint" />
            <mxPoint x="540" y="202.5" as="targetPoint" />
          </mxGeometry>
        </mxCell>
        <mxCell id="AJi2E8SLPrvwf800cju8-27" value="include" style="endArrow=classic;html=1;exitX=0.5;exitY=0;exitDx=0;exitDy=0;entryX=0.5;entryY=1;entryDx=0;entryDy=0;" edge="1" parent="AJi2E8SLPrvwf800cju8-1" source="AJi2E8SLPrvwf800cju8-20" target="AJi2E8SLPrvwf800cju8-29">
          <mxGeometry relative="1" as="geometry">
            <mxPoint x="490" y="275" as="sourcePoint" />
            <mxPoint x="560" y="212.5" as="targetPoint" />
          </mxGeometry>
        </mxCell>
        <mxCell id="AJi2E8SLPrvwf800cju8-28" value="Turn IR into .exe" style="ellipse;whiteSpace=wrap;html=1;fillColor=none;" vertex="1" parent="AJi2E8SLPrvwf800cju8-1">
          <mxGeometry x="370" y="335" width="110" height="45" as="geometry" />
        </mxCell>
        <mxCell id="AJi2E8SLPrvwf800cju8-29" value="Parse Input" style="ellipse;whiteSpace=wrap;html=1;fillColor=none;" vertex="1" parent="AJi2E8SLPrvwf800cju8-1">
          <mxGeometry x="370" y="150" width="110" height="45" as="geometry" />
        </mxCell>
        <mxCell id="AJi2E8SLPrvwf800cju8-30" value="include" style="endArrow=classic;html=1;exitX=0.5;exitY=1;exitDx=0;exitDy=0;entryX=0.5;entryY=0;entryDx=0;entryDy=0;" edge="1" parent="AJi2E8SLPrvwf800cju8-1" source="AJi2E8SLPrvwf800cju8-20" target="AJi2E8SLPrvwf800cju8-28">
          <mxGeometry relative="1" as="geometry">
            <mxPoint x="490" y="275" as="sourcePoint" />
            <mxPoint x="560" y="152.5" as="targetPoint" />
          </mxGeometry>
        </mxCell>
        <mxCell id="AJi2E8SLPrvwf800cju8-31" value="Cross Assembler" style="text;html=1;align=center;verticalAlign=middle;resizable=0;points=[];autosize=1;" vertex="1" parent="AJi2E8SLPrvwf800cju8-1">
          <mxGeometry x="120" y="80" width="110" height="20" as="geometry" />
        </mxCell>
        <mxCell id="AJi2E8SLPrvwf800cju8-32" value="include" style="endArrow=classic;html=1;exitX=1;exitY=0;exitDx=0;exitDy=0;entryX=0;entryY=1;entryDx=0;entryDy=0;" edge="1" parent="AJi2E8SLPrvwf800cju8-1" source="AJi2E8SLPrvwf800cju8-29" target="AJi2E8SLPrvwf800cju8-33">
          <mxGeometry relative="1" as="geometry">
            <mxPoint x="435" y="252.5" as="sourcePoint" />
            <mxPoint x="435" y="205" as="targetPoint" />
          </mxGeometry>
        </mxCell>
        <mxCell id="AJi2E8SLPrvwf800cju8-33" value="Use Lexer" style="ellipse;whiteSpace=wrap;html=1;fillColor=none;" vertex="1" parent="AJi2E8SLPrvwf800cju8-1">
          <mxGeometry x="520" y="90" width="110" height="45" as="geometry" />
        </mxCell>
      </root>
    </mxGraphModel>
  </diagram>
</mxfile>
